<svg width="18" height="16" viewBox="0 0 18 16" fill="none" xmlns="http://www.w3.org/2000/svg">
<path d="M0.949951 0H17.75V11C17.75 13.7614 15.5114 16 12.75 16H5.94995C3.18853 16 0.949951 13.7614 0.949951 11V0Z" fill="black" fill-opacity="0.33"/>
<path fill-rule="evenodd" clip-rule="evenodd" d="M6.19995 0H12.5C15.399 0 17.75 2.239 17.75 5V11C17.75 13.761 15.399 16 12.5 16H6.19995C3.3009 16 0.949951 13.761 0.949951 11V5C0.949951 2.239 3.3009 0 6.19995 0ZM12.5 14.5C14.5265 14.5 16.175 12.93 16.175 11V5C16.175 3.07 14.5265 1.5 12.5 1.5H6.19995C4.17345 1.5 2.52495 3.07 2.52495 5V11C2.52495 12.93 4.17345 14.5 6.19995 14.5H12.5ZM5.14995 8C5.14995 5.791 7.0305 4 9.34995 4C11.6694 4 13.55 5.791 13.55 8C13.55 10.209 11.6694 12 9.34995 12C7.0305 12 5.14995 10.209 5.14995 8ZM6.72495 8C6.72495 9.378 7.90305 10.5 9.34995 10.5C10.7969 10.5 11.975 9.378 11.975 8C11.975 6.621 10.7969 5.5 9.34995 5.5C7.90305 5.5 6.72495 6.621 6.72495 8ZM14.4246 3.7C14.4246 3.99437 14.1741 4.233 13.865 4.233C13.5559 4.233 13.3053 3.99437 13.3053 3.7C13.3053 3.40564 13.5559 3.167 13.865 3.167C14.1741 3.167 14.4246 3.40564 14.4246 3.7Z" fill="#0D6EFD"/>
</svg>
