<svg width="17" height="16" viewBox="0 0 17 16" fill="none" xmlns="http://www.w3.org/2000/svg">
<path d="M0.0500488 0H16.85V11C16.85 13.7614 14.6115 16 11.85 16H5.05005C2.28863 16 0.0500488 13.7614 0.0500488 11V0Z" fill="black" fill-opacity="0.33"/>
<path fill-rule="evenodd" clip-rule="evenodd" d="M3.72505 1.75C3.72505 2.7165 2.90237 3.5 1.88755 3.5C0.872726 3.5 0.0500488 2.7165 0.0500488 1.75C0.0500488 0.783502 0.872726 0 1.88755 0C2.90237 0 3.72505 0.783502 3.72505 1.75ZM0.0500488 5H3.80695V16H0.0500488V5ZM14.0402 5.129C14.0269 5.125 14.0139 5.12089 14.0008 5.11678L14.0008 5.11677C13.9747 5.10855 13.9485 5.10033 13.9205 5.093C13.8701 5.082 13.8197 5.073 13.7683 5.065C13.5688 5.027 13.3504 5 13.0942 5C10.9039 5 9.51475 6.517 9.05695 7.103V5H5.30005V16H9.05695V10C9.05695 10 11.8961 6.234 13.0942 9V16H16.85V8.577C16.85 6.915 15.6541 5.53 14.0402 5.129Z" fill="#0D6EFD"/>
</svg>
