<svg width="18" height="16" viewBox="0 0 18 16" fill="none" xmlns="http://www.w3.org/2000/svg">
<path d="M0.350098 0H17.1501V11C17.1501 13.7614 14.9115 16 12.1501 16H5.3501C2.58868 16 0.350098 13.7614 0.350098 11V0Z" fill="black" fill-opacity="0.33"/>
<path d="M17.1501 2.8725C16.5253 3.1335 15.8596 3.3065 15.1656 3.3905C15.8796 2.9845 16.4245 2.3465 16.6807 1.5775C16.015 1.9555 15.28 2.2225 14.4967 2.3715C13.8646 1.7305 12.9637 1.3335 11.9809 1.3335C10.0741 1.3335 8.53905 2.8075 8.53905 4.6145C8.53905 4.8745 8.56215 5.1245 8.61885 5.3625C5.7555 5.2295 3.22185 3.9225 1.5198 1.9315C1.22265 2.4225 1.04835 2.9845 1.04835 3.5895C1.04835 4.7255 1.6626 5.7325 2.5782 6.3155C2.02485 6.3055 1.482 6.1525 1.0221 5.9115C1.0221 5.9215 1.0221 5.9345 1.0221 5.9475C1.0221 7.5415 2.21595 8.8655 3.7815 9.1705C3.50115 9.2435 3.1956 9.2785 2.8785 9.2785C2.658 9.2785 2.4354 9.2665 2.22645 9.2225C2.6727 10.5215 3.939 11.4765 5.4447 11.5075C4.2729 12.3805 2.78505 12.9065 1.17435 12.9065C0.891898 12.9065 0.620998 12.8945 0.350098 12.8615C1.87575 13.7985 3.68385 14.3335 5.6337 14.3335C11.9715 14.3335 15.4365 9.3335 15.4365 4.9995C15.4365 4.8545 15.4312 4.7145 15.4239 4.5755C16.1074 4.1135 16.6818 3.5365 17.1501 2.8725Z" fill="#0D6EFD"/>
</svg>
