<svg width="18" height="16" viewBox="0 0 18 16" fill="none" xmlns="http://www.w3.org/2000/svg">
<path d="M0.649902 0H17.4499V11C17.4499 13.7614 15.2113 16 12.4499 16H5.64991C2.88848 16 0.649902 13.7614 0.649902 11V0Z" fill="black" fill-opacity="0.33"/>
<path fill-rule="evenodd" clip-rule="evenodd" d="M14.7787 2.7585C15.7857 2.8125 16.2802 2.9545 16.7359 3.7265C17.2105 4.4975 17.4499 5.8255 17.4499 8.1645V8.1675V8.1725C17.4499 10.5005 17.2105 11.8385 16.737 12.6015C16.2813 13.3735 15.7867 13.5135 14.7798 13.5785C13.7728 13.6335 11.2434 13.6665 9.052 13.6665C6.85645 13.6665 4.32595 13.6335 3.32005 13.5775C2.3152 13.5125 1.82065 13.3725 1.36075 12.6005C0.891402 11.8375 0.649902 10.4995 0.649902 8.1715V8.1695V8.1665V8.1635C0.649902 5.8255 0.891402 4.4975 1.36075 3.7265C1.82065 2.9535 2.31625 2.8125 3.3211 2.7575C4.32595 2.6935 6.85645 2.6665 9.052 2.6665C11.2434 2.6665 13.7728 2.6935 14.7787 2.7585ZM12.1999 8.1665L6.9499 5.1665V11.1665L12.1999 8.1665Z" fill="#0D6EFD"/>
</svg>
